<?xml version="1.0" encoding="UTF-8" standalone="no"?><!DOCTYPE svg PUBLIC "-//W3C//DTD SVG 1.1//EN" "http://www.w3.org/Graphics/SVG/1.1/DTD/svg11.dtd"><svg width="100%" height="100%" viewBox="0 0 200 192" version="1.1" xmlns="http://www.w3.org/2000/svg" xmlns:xlink="http://www.w3.org/1999/xlink" xml:space="preserve" xmlns:serif="http://www.serif.com/" style="fill-rule:evenodd;clip-rule:evenodd;stroke-linejoin:round;stroke-miterlimit:2;"><path d="M103.071,24.372c39.202,-0 71.461,32.259 71.461,71.461c0,39.202 -32.259,71.461 -71.461,71.461l-0,-142.922Zm-17.865,11.724c3.389,0 6.141,2.752 6.141,6.141c0,3.389 -2.752,6.141 -6.141,6.141c-3.389,0 -6.141,-2.752 -6.141,-6.141c0,-3.389 2.752,-6.141 6.141,-6.141Zm0,17.865c3.389,0 6.141,2.752 6.141,6.141c0,3.389 -2.752,6.141 -6.141,6.141c-3.389,0 -6.141,-2.752 -6.141,-6.141c0,-3.389 2.752,-6.141 6.141,-6.141Zm0,17.865c3.389,0 6.141,2.752 6.141,6.141c0,3.389 -2.752,6.141 -6.141,6.141c-3.389,0 -6.141,-2.752 -6.141,-6.141c0,-3.389 2.752,-6.141 6.141,-6.141Zm0,17.865c3.389,0 6.141,2.752 6.141,6.141c0,3.389 -2.752,6.141 -6.141,6.141c-3.389,0 -6.141,-2.752 -6.141,-6.141c0,-3.389 2.752,-6.141 6.141,-6.141Zm0,17.865c3.389,0 6.141,2.752 6.141,6.141c0,3.389 -2.752,6.141 -6.141,6.141c-3.389,0 -6.141,-2.752 -6.141,-6.141c0,-3.389 2.752,-6.141 6.141,-6.141Zm0,17.865c3.389,0 6.141,2.752 6.141,6.141c0,3.389 -2.752,6.141 -6.141,6.141c-3.389,0 -6.141,-2.752 -6.141,-6.141c0,-3.389 2.752,-6.141 6.141,-6.141Zm0,17.865c3.389,0 6.141,2.752 6.141,6.141c0,3.389 -2.752,6.141 -6.141,6.141c-3.389,0 -6.141,-2.752 -6.141,-6.141c0,-3.389 2.752,-6.141 6.141,-6.141Zm-17.865,-89.327c3.389,0 6.141,2.752 6.141,6.141c0,3.389 -2.752,6.141 -6.141,6.141c-3.389,0 -6.141,-2.752 -6.141,-6.141c0,-3.389 2.752,-6.141 6.141,-6.141Zm0,17.865c3.389,0 6.141,2.752 6.141,6.141c0,3.389 -2.752,6.141 -6.141,6.141c-3.389,0 -6.141,-2.752 -6.141,-6.141c0,-3.389 2.752,-6.141 6.141,-6.141Zm0,17.865c3.389,0 6.141,2.752 6.141,6.141c0,3.389 -2.752,6.141 -6.141,6.141c-3.389,0 -6.141,-2.752 -6.141,-6.141c0,-3.389 2.752,-6.141 6.141,-6.141Zm0,17.865c3.389,0 6.141,2.752 6.141,6.141c0,3.389 -2.752,6.141 -6.141,6.141c-3.389,0 -6.141,-2.752 -6.141,-6.141c0,-3.389 2.752,-6.141 6.141,-6.141Zm0,17.865c3.389,0 6.141,2.752 6.141,6.141c0,3.389 -2.752,6.141 -6.141,6.141c-3.389,0 -6.141,-2.752 -6.141,-6.141c0,-3.389 2.752,-6.141 6.141,-6.141Zm-17.865,-53.596c3.389,0 6.141,2.752 6.141,6.141c0,3.389 -2.752,6.141 -6.141,6.141c-3.389,0 -6.141,-2.752 -6.141,-6.141c0,-3.389 2.752,-6.141 6.141,-6.141Zm0,17.865c3.389,0 6.141,2.752 6.141,6.141c0,3.389 -2.752,6.141 -6.141,6.141c-3.389,0 -6.141,-2.752 -6.141,-6.141c0,-3.389 2.752,-6.141 6.141,-6.141Zm0,17.865c3.389,0 6.141,2.752 6.141,6.141c0,3.389 -2.752,6.141 -6.141,6.141c-3.389,0 -6.141,-2.752 -6.141,-6.141c0,-3.389 2.752,-6.141 6.141,-6.141Zm-17.865,-17.865c3.389,0 6.141,2.752 6.141,6.141c0,3.389 -2.752,6.141 -6.141,6.141c-3.389,0 -6.141,-2.752 -6.141,-6.141c0,-3.389 2.752,-6.141 6.141,-6.141Z" style="fill:url(#_Linear1);"/><defs><linearGradient id="_Linear1" x1="0" y1="0" x2="1" y2="0" gradientUnits="userSpaceOnUse" gradientTransform="matrix(-114.285699,142.922409,-142.922409,-114.285699,139.753896,24.372129)"><stop offset="0" style="stop-color:#41e1d1;stop-opacity:1"/><stop offset="1" style="stop-color:#008dd0;stop-opacity:1"/></linearGradient></defs></svg>