<?xml version="1.0" encoding="UTF-8" standalone="no"?><!DOCTYPE svg PUBLIC "-//W3C//DTD SVG 1.1//EN" "http://www.w3.org/Graphics/SVG/1.1/DTD/svg11.dtd"><svg width="100%" height="100%" viewBox="0 0 24 24" version="1.1" xmlns="http://www.w3.org/2000/svg" xmlns:xlink="http://www.w3.org/1999/xlink" xml:space="preserve" xmlns:serif="http://www.serif.com/" style="fill-rule:evenodd;clip-rule:evenodd;stroke-linejoin:round;stroke-miterlimit:2;"><path d="M12.359,3.645c4.583,-0 8.355,3.772 8.355,8.355c0,4.583 -3.772,8.355 -8.355,8.355l0,-16.71Zm-2.089,1.371c0.396,0 0.718,0.322 0.718,0.718c0,0.396 -0.322,0.718 -0.718,0.718c-0.396,0 -0.718,-0.322 -0.718,-0.718c0,-0.396 0.322,-0.718 0.718,-0.718Zm0,2.089c0.396,0 0.718,0.322 0.718,0.718c0,0.396 -0.322,0.718 -0.718,0.718c-0.396,0 -0.718,-0.322 -0.718,-0.718c0,-0.396 0.322,-0.718 0.718,-0.718Zm0,2.089c0.396,0 0.718,0.322 0.718,0.718c0,0.396 -0.322,0.718 -0.718,0.718c-0.396,0 -0.718,-0.322 -0.718,-0.718c0,-0.396 0.322,-0.718 0.718,-0.718Zm0,2.089c0.396,0 0.718,0.322 0.718,0.718c0,0.396 -0.322,0.718 -0.718,0.718c-0.396,0 -0.718,-0.322 -0.718,-0.718c0,-0.396 0.322,-0.718 0.718,-0.718Zm0,2.089c0.396,0 0.718,0.322 0.718,0.718c0,0.396 -0.322,0.718 -0.718,0.718c-0.396,0 -0.718,-0.322 -0.718,-0.718c0,-0.396 0.322,-0.718 0.718,-0.718Zm0,2.089c0.396,0 0.718,0.322 0.718,0.718c0,0.396 -0.322,0.718 -0.718,0.718c-0.396,0 -0.718,-0.322 -0.718,-0.718c0,-0.396 0.322,-0.718 0.718,-0.718Zm0,2.089c0.396,0 0.718,0.322 0.718,0.718c0,0.396 -0.322,0.718 -0.718,0.718c-0.396,0 -0.718,-0.322 -0.718,-0.718c0,-0.396 0.322,-0.718 0.718,-0.718Zm-2.089,-10.444c0.396,0 0.718,0.322 0.718,0.718c0,0.396 -0.322,0.718 -0.718,0.718c-0.396,0 -0.718,-0.322 -0.718,-0.718c0,-0.396 0.322,-0.718 0.718,-0.718Zm0,2.089c0.396,0 0.718,0.322 0.718,0.718c0,0.396 -0.322,0.718 -0.718,0.718c-0.396,0 -0.718,-0.322 -0.718,-0.718c0,-0.396 0.322,-0.718 0.718,-0.718Zm0,2.089c0.396,0 0.718,0.322 0.718,0.718c0,0.396 -0.322,0.718 -0.718,0.718c-0.396,0 -0.718,-0.322 -0.718,-0.718c0,-0.396 0.322,-0.718 0.718,-0.718Zm0,2.089c0.396,0 0.718,0.322 0.718,0.718c0,0.396 -0.322,0.718 -0.718,0.718c-0.396,0 -0.718,-0.322 -0.718,-0.718c0,-0.396 0.322,-0.718 0.718,-0.718Zm0,2.089c0.396,0 0.718,0.322 0.718,0.718c0,0.396 -0.322,0.718 -0.718,0.718c-0.396,0 -0.718,-0.322 -0.718,-0.718c0,-0.396 0.322,-0.718 0.718,-0.718Zm-2.089,-6.266c0.396,0 0.718,0.322 0.718,0.718c0,0.396 -0.322,0.718 -0.718,0.718c-0.396,0 -0.718,-0.322 -0.718,-0.718c0,-0.396 0.322,-0.718 0.718,-0.718Zm0,2.089c0.396,0 0.718,0.322 0.718,0.718c0,0.396 -0.322,0.718 -0.718,0.718c-0.396,0 -0.718,-0.322 -0.718,-0.718c0,-0.396 0.322,-0.718 0.718,-0.718Zm0,2.089c0.396,0 0.718,0.322 0.718,0.718c0,0.396 -0.322,0.718 -0.718,0.718c-0.396,0 -0.718,-0.322 -0.718,-0.718c0,-0.396 0.322,-0.718 0.718,-0.718Zm-2.089,-2.089c0.396,0 0.718,0.322 0.718,0.718c0,0.396 -0.322,0.718 -0.718,0.718c-0.396,0 -0.718,-0.322 -0.718,-0.718c0,-0.396 0.322,-0.718 0.718,-0.718Z" style="fill:url(#_Linear1);"/><defs><linearGradient id="_Linear1" x1="0" y1="0" x2="1" y2="0" gradientUnits="userSpaceOnUse" gradientTransform="matrix(-10.6625,11.247886,-128.006587,-121.344601,18.135191,6.364319)"><stop offset="0" style="stop-color:#40e0d0;stop-opacity:1"/><stop offset="1" style="stop-color:#12a5d1;stop-opacity:1"/></linearGradient></defs></svg>